<svg id="visual" viewBox="0 0 900 600" width="900" height="600" xmlns="http://www.w3.org/2000/svg" xmlns:xlink="http://www.w3.org/1999/xlink" version="1.1"><rect x="0" y="0" width="900" height="600" fill="#000"></rect><defs><linearGradient id="grad1_0" x1="33.3%" y1="100%" x2="100%" y2="0%"><stop offset="20%" stop-color="#000000" stop-opacity="1"></stop><stop offset="80%" stop-color="#000000" stop-opacity="1"></stop></linearGradient></defs><defs><linearGradient id="grad2_0" x1="0%" y1="100%" x2="66.7%" y2="0%"><stop offset="20%" stop-color="#000000" stop-opacity="1"></stop><stop offset="80%" stop-color="#000000" stop-opacity="1"></stop></linearGradient></defs><g transform="translate(900, 600)"><path d="M-324.5 0C-307.7 -51.6 -290.8 -103.2 -265.9 -153.5C-240.9 -203.8 -207.9 -252.7 -162.2 -281C-116.6 -309.3 -58.3 -316.9 0 -324.5L0 0Z" fill="#FF0000"></path></g><g transform="translate(0, 0)"><path d="M324.5 0C292.4 42.8 260.3 85.6 237.3 137C214.3 188.4 200.3 248.3 162.2 281C124.2 313.7 62.1 319.1 0 324.5L0 0Z" fill="#FF0000"></path></g></svg>