<svg id="visual" viewBox="0 0 900 600" width="900" height="600" xmlns="http://www.w3.org/2000/svg" xmlns:xlink="http://www.w3.org/1999/xlink" version="1.1"><rect x="0" y="0" width="900" height="600" fill="#000"></rect><path d="M0 504L21.5 506.3C43 508.7 86 513.3 128.8 506.8C171.7 500.3 214.3 482.7 257.2 480.3C300 478 343 491 385.8 501.8C428.7 512.7 471.3 521.3 514.2 526.7C557 532 600 534 642.8 523.7C685.7 513.3 728.3 490.7 771.2 485.7C814 480.7 857 493.3 878.5 499.7L900 506L900 601L878.5 601C857 601 814 601 771.2 601C728.3 601 685.7 601 642.8 601C600 601 557 601 514.2 601C471.3 601 428.7 601 385.8 601C343 601 300 601 257.2 601C214.3 601 171.7 601 128.8 601C86 601 43 601 21.5 601L0 601Z" fill="#ff0000" stroke-linecap="round" stroke-linejoin="miter"></path></svg>